<?xml version="1.0" encoding="iso-8859-1"?>
<!-- Uploaded to: SVG Repo, www.svgrepo.com, Generator: SVG Repo Mixer Tools -->
<!DOCTYPE svg PUBLIC "-//W3C//DTD SVG 1.1//EN" "http://www.w3.org/Graphics/SVG/1.1/DTD/svg11.dtd">
<svg fill="#000000" height="800px" width="800px" version="1.1" id="Capa_1" xmlns="http://www.w3.org/2000/svg" xmlns:xlink="http://www.w3.org/1999/xlink" 
	 viewBox="0 0 307.227 307.227" xml:space="preserve">
<path d="M257.526,164.309c32.674-18.879,44.893-45.992,34.402-76.345c-6.823-19.748-22.916-31.539-43.045-31.539
	c-12.842,0-24.882,4.717-34.051,12.547c-0.014-37.736-17.383-61.875-48.914-67.969C162.473,0.337,159.047,0,155.741,0
	c-18.968,0-34.623,10.907-41.879,29.179c-3.771,9.495-4.639,19.64-2.883,29.131c-0.006-0.004-0.012-0.008-0.019-0.012
	C96.815,50.132,83.241,45.99,70.616,45.99c-16.415,0-31.289,7.146-43.015,20.663c-12.596,14.522-15.482,32.354-7.922,48.92
	c5.87,12.859,17.024,22.715,30.022,27.346c-32.674,18.878-44.893,45.992-34.403,76.345c6.824,19.748,22.916,31.539,43.045,31.539
	c12.843,0,24.884-4.719,34.052-12.549c0.014,37.736,17.383,61.875,48.915,67.969c3.446,0.666,6.87,1.004,10.181,1.004
	c18.965,0,34.619-10.908,41.875-29.178c3.771-9.494,4.639-19.639,2.883-29.131c0.006,0.004,0.012,0.008,0.018,0.012
	c14.146,8.166,27.72,12.307,40.344,12.307c16.416,0,31.291-7.144,43.018-20.664c12.595-14.521,15.482-32.352,7.92-48.918
	C281.678,178.794,270.524,168.938,257.526,164.309z M248.883,70.365c14.118,0,25.006,8.073,29.87,22.151
	c8.304,24.031-1.196,44.131-28.237,59.742c-7.379,4.261-16.521,6.421-27.17,6.421c-7.701,0-15.268-1.131-21.875-2.615
	c0.041-0.813,0.063-1.628,0.063-2.451c0-6.262-1.213-12.236-3.397-17.719c5.345-10.088,10.849-23.002,14.448-38.205
	C216.787,79.942,234.423,70.365,248.883,70.365z M126.817,34.323c5.069-12.764,15.883-20.383,28.924-20.383
	c2.422,0,4.957,0.252,7.533,0.75c24.963,4.824,37.62,23.102,37.62,54.326c0,17.344-11.052,33.326-21.241,44.379
	c-5.664-3.674-12.146-6.188-19.121-7.197c-6.064-9.672-14.496-20.896-25.863-31.616C122.687,63.284,122.092,46.222,126.817,34.323z
	 M32.361,109.784c-3.054-6.69-6.364-20.004,5.771-33.997c9.127-10.522,20.057-15.856,32.484-15.856
	c10.146,0,21.375,3.512,33.375,10.439c15.021,8.673,23.334,26.232,27.811,40.581c-6.152,3.151-11.53,7.592-15.783,12.969
	c-13.818,0.492-27.355,2.7-40.321,6.585c-3.062,0.918-6.235,1.383-9.433,1.383C52.243,131.888,38.299,122.799,32.361,109.784z
	 M58.343,236.862c-14.117,0-25.005-8.072-29.869-22.15c-8.305-24.033,1.195-44.133,28.236-59.744
	c7.38-4.26,16.521-6.421,27.171-6.421c7.701,0,15.267,1.133,21.875,2.616c-0.041,0.812-0.063,1.63-0.063,2.452
	c0,6.261,1.213,12.234,3.397,17.716c-5.345,10.09-10.849,23.002-14.448,38.207C90.44,227.286,72.804,236.862,58.343,236.862z
	 M180.411,272.905c-5.069,12.762-15.881,20.383-28.92,20.383c-2.426,0-4.959-0.254-7.536-0.752
	c-24.963-4.824-37.62-23.102-37.62-54.324c0-17.346,11.052-33.328,21.24-44.379c5.664,3.674,12.146,6.188,19.121,7.197
	c6.064,9.672,14.496,20.895,25.863,31.615C184.541,243.944,185.135,261.006,180.411,272.905z M269.096,231.438
	c-9.127,10.523-20.057,15.859-32.486,15.859c-10.146,0-21.374-3.514-33.372-10.439c-15.02-8.672-23.335-26.232-27.811-40.582
	c6.152-3.15,11.531-7.592,15.783-12.969c13.819-0.492,27.355-2.701,40.322-6.586c3.061-0.916,6.234-1.383,9.432-1.383
	c14.023,0,27.964,9.09,33.902,22.104C277.92,204.133,281.232,217.448,269.096,231.438z"/>
</svg>