<?xml version="1.0" encoding="iso-8859-1"?>
<!-- Uploaded to: SVG Repo, www.svgrepo.com, Generator: SVG Repo Mixer Tools -->
<!DOCTYPE svg PUBLIC "-//W3C//DTD SVG 1.1//EN" "http://www.w3.org/Graphics/SVG/1.1/DTD/svg11.dtd">
<svg fill="#000000" height="800px" width="800px" version="1.1" id="Capa_1" xmlns="http://www.w3.org/2000/svg" xmlns:xlink="http://www.w3.org/1999/xlink" 
	 viewBox="0 0 380 380" xml:space="preserve">
<g>
	<path style="fill-rule:evenodd;clip-rule:evenodd;" d="M182.013,68.944c0-0.659-0.057-1.306-0.158-1.936
		c-0.926,5.649-5.825,9.964-11.737,9.964s-10.811-4.314-11.739-9.964c-0.102,0.63-0.16,1.276-0.16,1.936
		c0,6.569,5.328,11.897,11.899,11.897C176.688,80.842,182.013,75.514,182.013,68.944z"/>
	<path style="fill-rule:evenodd;clip-rule:evenodd;" d="M209.882,80.842c6.572,0,11.898-5.328,11.898-11.897
		c0-0.659-0.061-1.306-0.158-1.936c-0.927,5.649-5.828,9.964-11.74,9.964c-5.911,0-10.81-4.314-11.737-9.964
		c-0.101,0.63-0.157,1.276-0.157,1.936C197.987,75.514,203.314,80.842,209.882,80.842z"/>
	<path style="fill-rule:evenodd;clip-rule:evenodd;" d="M329.905,319.342c0,0-15.82-22.666-55.264-29.025
		c8.627-7.418,16.863-14.328,24.899-21.48c8.654-7.727,11.936-16.977,8.332-28.564c-9.109-29.152-17.363-45.352-26.965-74.33
		c-6.992-21.13-21.853-33.203-44.998-33.684c-4.307-0.086-8.872-0.844-12.799-2.506c-1.748-0.739-3.167-1.584-4.278-2.512
		c-0.038-3.542,0.852-8.541,3.763-15.525c4.902-5.743,8.129-12.717,10.446-19.777c2.109-0.595,4.054-1.781,4.626-2.639
		c2.231-3,6.363-6.777,7.913-10.275c3.161-7.846,0.297-11.859-1.19-13.049c-1.459-1.215-3.044-1.32-4.617-0.816
		c0.437-1.481,0.898-2.95,1.444-4.398c5.604-14.83-1.742-29.617-16.232-36.921c-5.038-2.54-9.665-4.217-13.92-5.341
		C209.89,8.093,200.91,0,190.001,0c-10.91,0-19.892,8.093-21.067,18.498c-4.255,1.124-8.882,2.801-13.921,5.341
		c-14.488,7.304-21.834,22.091-16.231,36.921c0.546,1.448,1.009,2.918,1.445,4.4c-1.573-0.506-3.158-0.402-4.617,0.814
		c-1.488,1.189-4.352,5.203-1.191,13.049c1.548,3.498,5.682,7.275,7.915,10.275c0.57,0.858,2.516,2.043,4.624,2.639
		c2.132,6.495,5.034,12.919,9.302,18.379c0,0,4.287,8.332,6.622,15.096c-1.174,1.665-3.155,3.14-5.993,4.34
		c-3.927,1.662-8.492,2.42-12.799,2.506c-23.144,0.48-38.006,12.554-44.998,33.684c-9.602,28.979-17.855,45.178-26.965,74.33
		c-3.604,11.588-0.322,20.838,8.332,28.564c8.036,7.152,16.272,14.063,24.899,21.48c-39.443,6.359-55.264,29.025-55.264,29.025
		C39.708,331.147,18.273,380,95.623,380h188.754C361.727,380,340.292,331.147,329.905,319.342z M130.92,270.641
		c-7.604-3.676-20.056-18.707-18.714-24.473c4.927-14.504,10.925-25.434,18.714-39.496V270.641z M148.411,72.299
		c-0.426-2.025-0.83-3.937-1.246-5.762c-1.682-7.358,1.066-16.242,7.538-24.363h70.592c6.475,8.121,9.224,17.005,7.539,24.363
		c-0.415,1.825-0.819,3.736-1.246,5.762c-2.06,9.774-4.626,21.936-10.646,31.229c-6.81,10.505-16.93,15.612-30.94,15.612
		c-14.014,0-24.135-5.107-30.942-15.612C153.038,94.234,150.472,82.072,148.411,72.299z M249.08,270.641v-63.969
		c7.789,14.063,13.787,24.992,18.714,39.496C269.137,251.934,256.684,266.965,249.08,270.641z"/>
</g>
</svg>