<?xml version="1.0" encoding="iso-8859-1"?>
<!-- Uploaded to: SVG Repo, www.svgrepo.com, Generator: SVG Repo Mixer Tools -->
<!DOCTYPE svg PUBLIC "-//W3C//DTD SVG 1.1//EN" "http://www.w3.org/Graphics/SVG/1.1/DTD/svg11.dtd">
<svg fill="#000000" height="800px" width="800px" version="1.1" id="Capa_1" xmlns="http://www.w3.org/2000/svg" xmlns:xlink="http://www.w3.org/1999/xlink" 
	 viewBox="0 0 300.975 300.975" xml:space="preserve">
<g>
	<path d="M116.024,233.361l0.09-64.924c-30.191,6.805-57.249-2.844-70.275-17.979c-3.684-4.279-4.82-8.678-3.379-13.074
		c2.731-8.326,14.315-15.773,30.23-19.436c14.66-3.372,31.426-2.125,43.488,2.449l0.012-8.514
		c-13.178-4.354-29.909-5.271-45.294-1.732c-18.912,4.352-32.384,13.602-36.038,24.74c-2.309,7.037-0.563,14.42,4.917,20.785
		c3.958,4.598,9.064,8.74,15.034,12.215C33.353,161.379,20,148.988,20,137.502c0-16.555,27.721-35,67.5-35
		c10.508,0,20.163,1.297,28.7,3.496l0.027-20.564c-8.963-1.899-18.617-2.932-28.727-2.932c-46.973,0-84.177,22.146-87.268,51.096
		L0,232.875c0,0.01,0.001,0.02,0.001,0.029L0,233.375c0,30.842,38.435,55,87.5,55c20.21,0,38.598-4.105,53.247-11.082
		C124.751,265.496,116.024,250.09,116.024,233.361z"/>
	<path d="M87.748,131.256c8.699-2,17.944,0.301,20.8,3.621c1.441,1.674,3.967,1.863,5.642,0.422
		c1.674-1.441,1.863-3.967,0.422-5.641c-5.238-6.088-17.559-8.754-28.656-6.199c-8.688,1.998-14.693,6.262-16.477,11.699
		c-1.214,3.699-0.337,7.529,2.467,10.787c7.555,8.783,26.253,12.721,42.57,8.965c0.55-0.127,1.082-0.266,1.617-0.404l0.012-8.307
		c-1.081,0.326-2.211,0.635-3.424,0.914c-13.218,3.045-29.115,0.119-34.712-6.387c-1.403-1.631-1.059-2.68-0.929-3.076
		C77.776,135.529,81.345,132.729,87.748,131.256z"/>
	<path d="M300.792,63.695C297.701,34.746,260.497,12.6,213.524,12.6c-46.972,0-84.176,22.147-87.267,51.096l-0.233,169.68
		c0,30.842,38.435,55,87.5,55s87.45-24.158,87.45-55L300.792,63.695z M257.395,93.258c-0.04,0.016-0.082,0.02-0.122,0.035
		c-36.026,14.6-70.235,4.392-85.407-13.236c-3.684-4.279-4.821-8.678-3.379-13.074c2.73-8.326,14.314-15.773,30.23-19.438
		c21.372-4.914,47.222-0.016,56.446,10.703c2.034,2.363,2.65,4.646,1.886,6.979c-1.248,3.803-6.711,8.818-18.303,11.484
		c-13.219,3.045-29.116,0.119-34.712-6.387c-1.403-1.631-1.059-2.68-0.929-3.076c0.695-2.121,4.264-4.922,10.668-6.394
		c8.698-2,17.943,0.301,20.8,3.621c1.44,1.674,3.966,1.863,5.641,0.422c1.675-1.441,1.863-3.967,0.423-5.641
		c-5.238-6.088-17.56-8.754-28.657-6.199c-8.688,1.998-14.693,6.262-16.476,11.699c-1.214,3.699-0.338,7.529,2.467,10.787
		c7.555,8.783,26.253,12.721,42.569,8.965c12.788-2.943,21.576-9.063,24.11-16.787c1.641-5.004,0.425-10.221-3.424-14.691
		c-11.309-13.141-39.553-18.973-64.304-13.279c-18.912,4.352-32.385,13.602-36.038,24.74c-2.309,7.037-0.562,14.42,4.917,20.785
		c3.957,4.598,9.063,8.74,15.033,12.215c-21.458-6.514-34.811-18.904-34.811-30.391c0-16.555,27.722-35,67.5-35
		c39.779,0,67.5,18.445,67.5,35C281.024,76.434,272.211,86.367,257.395,93.258z"/>
</g>
</svg>